<?xml version="1.0" encoding="UTF-8" standalone="no"?>
<!-- Uploaded to: SVG Repo, www.svgrepo.com, Generator: SVG Repo Mixer Tools -->

<svg
   width="190mm"
   height="190mm"
   viewBox="0 0 190 190"
   fill="none"
   version="1.1"
   id="svg5"
   sodipodi:docname="butterfly.svg"
   inkscape:version="1.3.2 (091e20e, 2023-11-25)"
   xmlns:inkscape="http://www.inkscape.org/namespaces/inkscape"
   xmlns:sodipodi="http://sodipodi.sourceforge.net/DTD/sodipodi-0.dtd"
   xmlns="http://www.w3.org/2000/svg"
   xmlns:svg="http://www.w3.org/2000/svg">
  <defs
     id="defs5" />
  <sodipodi:namedview
     id="namedview5"
     pagecolor="#ffffff"
     bordercolor="#000000"
     borderopacity="0.25"
     inkscape:showpageshadow="2"
     inkscape:pageopacity="0.0"
     inkscape:pagecheckerboard="0"
     inkscape:deskcolor="#d1d1d1"
     showborder="true"
     inkscape:document-units="mm"
     inkscape:zoom="1.08125"
     inkscape:cx="400"
     inkscape:cy="400"
     inkscape:window-width="1392"
     inkscape:window-height="1212"
     inkscape:window-x="1289"
     inkscape:window-y="249"
     inkscape:window-maximized="0"
     inkscape:current-layer="svg5" />
  <path
     d="M 82.950738,138.10178 C 79.216722,151.30984 51.153489,165.64226 42.833489,149.00123 34.176644,131.68847 57.087057,118.7748 70.688337,116.30184"
     stroke="#000000"
     stroke-opacity="0.9"
     stroke-width="8.192"
     stroke-linecap="round"
     stroke-linejoin="round"
     id="path1" />
  <path
     d="m 70.082641,117.21013 c -7.181312,0.74598 -14.290432,-4.81741 -20.285952,-8.1751 C 29.564141,97.704988 16.395091,75.64854 19.216928,51.660316 22.199174,26.31053 53.128273,40.25654 64.027217,49.540636 c 9.436673,8.038912 16.565761,18.960896 21.799425,30.12608 4.25626,9.078784 7.81978,16.772096 10.59687,26.492404"
     stroke="#000000"
     stroke-opacity="0.9"
     stroke-width="8.192"
     stroke-linecap="round"
     stroke-linejoin="round"
     id="path2" />
  <path
     d="m 99.603032,99.95215 c 2.290688,-9.010682 4.533248,-18.373114 8.023548,-27.098106 3.84512,-9.6128 8.29184,-19.484672 14.68416,-27.703296 5.72621,-7.362049 27.43245,-31.033295 38.75482,-20.739842 3.49132,3.17394 4.93926,9.58587 5.90387,13.927681 6.19981,27.897345 -20.39552,68.210163 -49.80583,71.151093"
     stroke="#000000"
     stroke-opacity="0.9"
     stroke-width="8.192"
     stroke-linecap="round"
     stroke-linejoin="round"
     id="path3" />
  <path
     d="m 118.67759,108.88347 c 17.30509,-6.07027 37.10822,17.22061 28.76313,33.91079 -9.68755,19.3751 -29.06624,14.98726 -45.87008,-11.05101"
     stroke="#000000"
     stroke-opacity="0.9"
     stroke-width="8.192"
     stroke-linecap="round"
     stroke-linejoin="round"
     id="path4" />
  <path
     d="m 96.424022,74.36854 c 3.995138,22.67392 -1.14534,49.8565 -2.87642,72.36197"
     stroke="#000000"
     stroke-opacity="0.9"
     stroke-width="8.192"
     stroke-linecap="round"
     stroke-linejoin="round"
     id="path5" />
</svg>
