<?xml version="1.0" encoding="UTF-8" standalone="no"?>
<!-- Uploaded to: SVG Repo, www.svgrepo.com, Generator: SVG Repo Mixer Tools -->

<svg
   width="190mm"
   height="190mm"
   viewBox="0 0 190 190"
   fill="none"
   version="1.1"
   id="svg8"
   sodipodi:docname="cat-face.svg"
   inkscape:version="1.3.2 (091e20e, 2023-11-25)"
   xmlns:inkscape="http://www.inkscape.org/namespaces/inkscape"
   xmlns:sodipodi="http://sodipodi.sourceforge.net/DTD/sodipodi-0.dtd"
   xmlns="http://www.w3.org/2000/svg"
   xmlns:svg="http://www.w3.org/2000/svg">
  <defs
     id="defs8" />
  <sodipodi:namedview
     id="namedview8"
     pagecolor="#ffffff"
     bordercolor="#000000"
     borderopacity="0.25"
     inkscape:showpageshadow="2"
     inkscape:pageopacity="0.0"
     inkscape:pagecheckerboard="0"
     inkscape:deskcolor="#d1d1d1"
     inkscape:document-units="mm"
     inkscape:zoom="1.08125"
     inkscape:cx="400"
     inkscape:cy="400"
     inkscape:window-width="1392"
     inkscape:window-height="1212"
     inkscape:window-x="0"
     inkscape:window-y="30"
     inkscape:window-maximized="0"
     inkscape:current-layer="svg8" />
  <path
     d="m 147.87722,78.539138 c 8.59652,10.15966 6.80841,22.583632 6.80918,33.549612 0,30.19757 -40.71672,38.6534 -61.691598,38.6534 -20.975114,0 -61.691289,-8.45583 -61.691289,-38.6534 7.5e-5,-10.96598 -1.787258,-23.389952 6.808563,-33.549612 m 109.765144,0 c -1.50362,-1.777284 -3.32497,-3.484991 -5.52976,-5.103795 m 5.52976,5.103795 c 5.41148,3.11701 6.79372,-8.546343 6.80918,-12.351308 V 51.693656 c 0,-12.562355 -8.63671,-16.910864 -16.03961,-16.910864 -7.40291,0 -22.20948,12.078339 -27.14473,12.078339 -5.92248,0 -7.06276,-1.20707 -18.507258,-1.20707 -11.443726,0 -12.584775,1.20707 -18.507171,1.20707 -4.935344,0 -19.741453,-12.079188 -27.14435,-12.079188 -7.402977,0 -16.039693,4.348507 -16.039693,16.910862 V 66.18783 c 0.01473,3.804965 1.397475,15.468318 6.808488,12.351308 m 0,0 c 1.503849,-1.777284 3.32543,-3.484991 5.529987,-5.103795"
     stroke="#1c274c"
     stroke-width="11.596"
     stroke-linecap="round"
     id="path1" />
  <path
     d="m 99.37879,119.81942 c 0,1.33432 -2.791541,2.41584 -6.234785,2.41584 -3.442471,0 -6.234021,-1.08152 -6.234021,-2.41584 0,-1.33432 2.79155,-2.41584 6.234021,-2.41584 3.443244,0 6.234785,1.08152 6.234785,2.41584 z"
     stroke="#1c274c"
     stroke-width="11.596"
     id="path2" />
  <path
     d="m 120.05218,101.21786 c 0,3.33501 -1.67447,6.03921 -3.74087,6.03921 -2.06564,0 -3.7401,-2.7042 -3.7401,-6.03921 0,-3.335786 1.67446,-6.039977 3.7401,-6.039977 2.0664,0 3.74087,2.704191 3.74087,6.039977 z"
     stroke="#1c274c"
     stroke-width="11.596"
     id="path3" />
  <path
     d="m 73.668101,101.21786 c 0,3.33501 -1.674774,6.03921 -3.740644,6.03921 -2.065948,0 -3.740644,-2.7042 -3.740644,-6.03921 0,-3.335786 1.674696,-6.039977 3.740644,-6.039977 2.06587,0 3.740644,2.704191 3.740644,6.039977 z"
     stroke="#1c274c"
     stroke-width="11.596"
     id="path4" />
  <path
     d="m 170.3047,115.71289 c -3.74088,-2.41662 -19.95058,-8.45582 -26.18459,-8.45582"
     stroke="#1c274c"
     stroke-width="11.596"
     stroke-linecap="round"
     id="path5" />
  <path
     d="m 157.83278,135.03959 c -3.7401,-2.41661 -12.46881,-8.45582 -18.70283,-8.45582"
     stroke="#1c274c"
     stroke-width="11.596"
     stroke-linecap="round"
     id="path6" />
  <path
     d="m 15.688001,115.71289 c 3.740645,-2.41662 19.950179,-8.45582 26.184588,-8.45582"
     stroke="#1c274c"
     stroke-width="11.596"
     stroke-linecap="round"
     id="path7" />
  <path
     d="m 28.155963,135.03959 c 3.740723,-2.41661 12.468893,-8.45582 18.703299,-8.45582"
     stroke="#1c274c"
     stroke-width="11.596"
     stroke-linecap="round"
     id="path8" />
</svg>
