<?xml version="1.0" encoding="UTF-8" standalone="no"?>
<!-- Uploaded to: SVG Repo, www.svgrepo.com, Generator: SVG Repo Mixer Tools -->

<svg
   width="190mm"
   height="190mm"
   viewBox="0 0 190 190"
   fill="none"
   version="1.1"
   id="svg1"
   sodipodi:docname="dog-face.svg"
   inkscape:version="1.3.2 (091e20e, 2023-11-25)"
   xmlns:inkscape="http://www.inkscape.org/namespaces/inkscape"
   xmlns:sodipodi="http://sodipodi.sourceforge.net/DTD/sodipodi-0.dtd"
   xmlns="http://www.w3.org/2000/svg"
   xmlns:svg="http://www.w3.org/2000/svg">
  <defs
     id="defs1" />
  <sodipodi:namedview
     id="namedview1"
     pagecolor="#ffffff"
     bordercolor="#000000"
     borderopacity="0.25"
     inkscape:showpageshadow="2"
     inkscape:pageopacity="0.0"
     inkscape:pagecheckerboard="0"
     inkscape:deskcolor="#d1d1d1"
     inkscape:document-units="mm"
     inkscape:zoom="0.5"
     inkscape:cx="401"
     inkscape:cy="401"
     inkscape:window-width="1392"
     inkscape:window-height="1212"
     inkscape:window-x="456"
     inkscape:window-y="144"
     inkscape:window-maximized="0"
     inkscape:current-layer="svg1" />
  <path
     fill-rule="evenodd"
     clip-rule="evenodd"
     d="m 40.895428,16.838149 c 12.16893,1.909909 24.898022,7.649586 34.497569,15.380773 6.363493,-1.993492 13.186729,-3.071602 20.27131,-3.071602 7.132263,0 13.999493,1.0926 20.399293,3.111659 9.82879,-7.601098 21.96888,-13.554515 34.30719,-15.411911 2.62657,-0.386765 5.35828,0.940833 6.55766,3.339453 4.81345,11.373294 4.9769,24.934988 2.01662,36.777369 l -0.0466,0.183617 c -0.79314,3.177782 -1.81845,7.284884 -5.10939,8.666504 2.44635,6.014222 3.79178,12.536903 3.79178,19.384967 0,17.165962 -7.04741,34.827282 -13.3667,50.662022 v 0 l -0.6396,1.60243 c -3.837,9.62808 -12.42245,16.25946 -22.37016,18.10706 l -14.05581,2.61108 c -4.33423,0.80494 -8.660392,-0.75849 -11.485062,-3.9101 -2.824667,3.15161 -7.150214,4.71504 -11.484431,3.9101 l -14.056109,-2.61108 c -9.947273,-1.8476 -18.53292,-8.47898 -22.370252,-18.10706 L 47.113603,135.861 C 40.794514,120.0262 33.746528,102.36492 33.746528,85.198955 c 0,-6.848062 1.345654,-13.370745 3.79219,-19.384966 -3.29425,-1.383048 -4.292981,-5.390398 -5.087126,-8.577033 l -0.06818,-0.273043 c -2.828331,-11.313607 -3.371964,-25.97855 2.016705,-36.777368 1.192901,-2.385806 3.860238,-3.757612 6.494575,-3.348374 z M 62.134693,38.066951 C 55.140382,42.154427 49.06988,47.507369 44.357907,53.798918 42.512712,46.265371 42.491905,37.887457 44.117883,30.308831 c 6.275079,1.812634 12.415798,4.382638 18.016845,7.75812 z M 146.9709,53.79898 c -4.68094,-6.250499 -10.70304,-11.57471 -17.63969,-15.651843 5.56645,-3.423846 11.55937,-6.166845 17.86261,-7.918737 1.64757,7.599985 1.62841,16.012635 -0.22269,23.57058 z M 76.182874,45.041449 c 5.963511,-2.254352 12.544833,-3.510656 19.481433,-3.510656 6.937223,0 13.518423,1.256304 19.481683,3.510656 18.01176,6.808868 30.05221,22.483801 30.05221,40.157494 0,14.953047 -6.25924,30.556217 -11.84913,44.490097 l -6.2e-4,0.001 c -0.43034,1.073 -0.85691,2.13612 -1.2761,3.18807 -2.17332,5.4531 -7.11495,9.39971 -13.12896,10.51669 l -14.05587,2.61104 -3.57635,-7.94832 c -0.99996,-2.22222 -3.210411,-3.65127 -5.646863,-3.65127 -2.436449,0 -4.646275,1.42905 -5.646244,3.65127 l -3.576967,7.94832 -14.055672,-2.61104 c -6.013727,-1.11698 -10.955222,-5.06359 -13.128464,-10.51669 -0.418804,-1.05071 -0.844797,-2.1126 -1.274696,-3.18438 l -0.0012,-10e-4 -8.69e-4,-0.001 c -5.589805,-13.9345 -11.84953,-29.53767 -11.84953,-44.490711 0,-17.673692 12.040947,-33.348626 30.052209,-40.157493 z m 10.193829,64.598131 c -2.345427,0 -4.489191,1.32503 -5.538076,3.42278 -1.048817,2.09778 -0.822446,4.60791 0.584687,6.48401 l 9.287605,12.38345 c 1.169621,1.55912 3.004234,2.4767 4.953388,2.4767 1.949162,0 3.783774,-0.91758 4.953393,-2.4767 l 9.2876,-12.38345 c 1.40741,-1.8761 1.63338,-4.38623 0.58449,-6.48401 -1.04884,-2.09775 -3.19246,-3.42278 -5.53789,-3.42278 z M 80.936269,79.431962 c 0,5.129856 -4.158178,9.287604 -9.287604,9.287604 -5.129417,0 -9.287604,-4.157748 -9.287604,-9.287604 0,-5.129235 4.158187,-9.287296 9.287604,-9.287296 5.129426,0 9.287604,4.158061 9.287604,9.287296 z m 39.494981,8.53655 c 5.12922,0 9.28761,-4.157753 9.28761,-9.287605 0,-5.129238 -4.15839,-9.287358 -9.28761,-9.287358 -5.12924,0 -9.2876,4.15812 -9.2876,9.287358 0,5.129852 4.15836,9.287605 9.2876,9.287605 z"
     fill="#000000"
     id="path1"
     style="stroke-width:6.19174" />
</svg>
