<?xml version="1.0" encoding="UTF-8" standalone="no"?>
<svg
   width="170mm"
   height="170mm"
   viewBox="0 0 170 170"
   version="1.1"
   id="svg4"
   sodipodi:docname="gs-logo.svg"
   inkscape:version="1.3.2 (091e20e, 2023-11-25)"
   xmlns:inkscape="http://www.inkscape.org/namespaces/inkscape"
   xmlns:sodipodi="http://sodipodi.sourceforge.net/DTD/sodipodi-0.dtd"
   xmlns="http://www.w3.org/2000/svg"
   xmlns:svg="http://www.w3.org/2000/svg">
  <defs
     id="defs4" />
  <sodipodi:namedview
     id="namedview4"
     pagecolor="#ffffff"
     bordercolor="#000000"
     borderopacity="0.25"
     inkscape:showpageshadow="2"
     inkscape:pageopacity="0.0"
     inkscape:pagecheckerboard="0"
     inkscape:deskcolor="#d1d1d1"
     inkscape:zoom="0.5"
     inkscape:cx="51"
     inkscape:cy="75"
     inkscape:window-width="1392"
     inkscape:window-height="1212"
     inkscape:window-x="1612"
     inkscape:window-y="226"
     inkscape:window-maximized="0"
     inkscape:current-layer="svg4"
     inkscape:document-units="mm" />
  <path
     d="m 102.51964,21.169146 c 2.00867,2.159469 7.88719,9.928108 8.03095,22.159913 0,3.02092 0.43139,10.505006 3.15491,14.102824 1.72122,2.159491 5.88236,7.051413 2.15248,8.633989 -2.15248,0.576901 -3.58617,2.303727 -2.2923,4.030509 1.00238,1.438353 1.00238,3.742034 -4.30106,5.180387 -1.43368,0.288384 -0.57503,1.438354 0.4274,1.149881 1.00629,-0.288384 2.58374,-0.288384 2.86733,0.865329 0.28744,1.149881 0,2.443997 -1.57741,3.020943 -1.57741,0.572979 -2.15249,2.01521 -1.72123,4.603488 0.4274,2.592156 -0.28745,7.335962 -9.612264,6.618738 -9.324785,-0.71726 -15.922046,-2.29976 -25.38667,9.643563 -3.442357,4.17082 -18.93314,22.87714 -20.366817,30.93812 -0.718798,6.33029 8.605969,13.81439 9.752135,14.67973 1.14615,0.86145 3.011097,1.14992 3.442358,0 10.610809,-20.00044 25.386655,-38.85099 28.829047,-43.02571 9.464621,-11.943352 13.338281,-9.643557 22.663031,-8.922432 9.32087,0.721138 10.03966,-4.030508 9.60839,-6.618738 -0.4314,-2.592111 0.1435,-4.030509 1.72122,-4.607392 1.57741,-0.572979 1.86495,-1.867096 1.57741,-3.020943 -0.28745,-1.149925 -1.86495,-1.149925 -2.86733,-0.865329 -1.00629,0.288383 -1.86494,-0.861452 -0.43139,-1.149881 5.30747,-1.438353 5.30747,-3.738113 4.30119,-5.180393 -1.29378,-1.726782 0.1435,-3.453606 2.2923,-4.030508 3.72988,-1.582567 -0.4274,-6.47451 -2.15249,-8.633978 -2.7236,-3.597819 -3.15487,-11.081908 -3.15487,-14.102829 C 129.33234,34.406623 123.73735,27.499435 121.72864,25.343861 116.70881,20.163471 107.52781,11.817933 81.997414,12.967836 56.467015,14.117738 40.692642,26.205313 39.8301,44.623181 26.923086,45.488533 5.4101066,48.938224 5.4101066,83.474164 c 0,34.532046 15.4907444,42.877576 30.1189514,44.031376 C 42.12632,113.40272 56.183387,94.123399 67.369206,83.762615 78.55503,73.401834 100.08355,54.983964 102.51964,21.169146 Z"
     id="path2"
     style="stroke-width:3.89162"
     sodipodi:nodetypes="ccccccccccsccccccccccccccccscscsc" />
  <path
     d="m 146.98318,49.226675 c 0,3.020919 0.43139,10.50501 3.15491,14.102827 1.72122,2.159491 5.88236,7.051411 2.15249,8.633983 -2.15249,0.572978 -3.58617,2.29976 -2.29625,4.030509 1.00629,1.438353 1.00629,3.738156 -4.30106,5.180387 -1.43369,0.288384 -0.57112,1.438354 0.43139,1.149881 1.00238,-0.288384 2.58375,-0.288384 2.86732,0.865329 0.28745,1.14988 0,2.443997 -1.57741,3.020943 -1.57741,0.576901 -2.15247,2.01521 -1.72122,4.603488 0.4314,2.592156 -0.28744,7.339868 -9.60838,6.618744 -9.32084,-0.721138 -12.04833,-2.732472 -21.51295,9.210884 -3.44241,4.17082 -20.510569,25.46928 -29.687685,44.60438 -1.150059,2.59215 -0.03488,4.37742 4.301059,4.1747 12.192116,-0.57691 26.245296,-14.53551 32.271416,-26.19042 13.62566,-0.57298 31.98376,-1.72676 39.15606,-19.85619 7.16839,-18.133319 4.58466,-57.27275 -13.62969,-60.149445 z"
     id="path3"
     style="stroke-width:3.89162" />
</svg>
